<svg width="24" height="24" viewBox="0 0 24 24" fill="none" xmlns="http://www.w3.org/2000/svg">
<path d="M12 12C14.21 12 16 10.21 16 8C16 5.79 14.21 4 12 4C9.79 4 8 5.79 8 8C8 10.21 9.79 12 12 12ZM12 14C9.33 14 4 15.34 4 18V20H20V18C20 15.34 14.67 14 12 14ZM16.5 12.5C18.16 12.5 19.5 11.16 19.5 9.5C19.5 7.84 18.16 6.5 16.5 6.5C15.42 6.5 14.5 7.17 14.12 8.1C14.39 8.05 14.69 8 15 8C15.31 8 15.61 8.05 15.88 8.1C15.5 7.17 14.58 6.5 13.5 6.5C11.84 6.5 10.5 7.84 10.5 9.5C10.5 11.16 11.84 12.5 13.5 12.5C14.08 12.5 14.64 12.28 15.09 11.91C15.54 12.28 16.1 12.5 16.5 12.5Z" fill="currentColor"/>
</svg>
